<?xml version="1.0" encoding="UTF-8"?>
<svg id="Layer_2" xmlns="http://www.w3.org/2000/svg" viewBox="0 0 109.21 56.05">
  <g id="Layer_1-2" data-name="Layer_1">
    <path d="M78.63,25.82L87.61,0h-7.41l-2.57,7.39c-.4,1.16-.83,2.62-1.29,4.4-.45,1.78-.96,3.69-1.51,5.71.24-2.07.31-6.31.3-6.85l-.31-10.66h-7.34l-10.09,29.01h7.34l2.57-7.39c.4-1.15.83-2.49,1.28-4.02.46-1.52.96-3.3,1.52-5.33-.14,1.85-.18,3.87-.14,6.08l.15,9.75-39.7,10.65c-6.63,1.78-11.99,1.52-15.01-.74-7.83-5.76-1.9-17.31.27-20.75-3.83,4.22-7.66,8.43-10.62,13.06C.37,37.56-1.63,45.44,1.53,50.55c5.67,9.13,19.26,4.96,27.9,1.23L109.21,17.62l-30.58,8.21h0ZM45.84,29.51c6.58,0,11.24-4.55,13.17-10.12,1.93-5.57,6.74-19.39,6.74-19.39h-7.72l-6.5,18.7c-.98,2.83-1.89,3.5-3.15,3.5s-1.77-.66-.79-3.5L54.1,0h-7.72s-4.71,13.55-6.74,19.39c-2.03,5.84-.38,10.12,6.2,10.12ZM33.48,0h-7.45l-10.09,29.01h7.68l4.13-11.89.14,11.89h8.32l-1.56-12.04c3.36-1.33,5.65-3.71,6.88-7.27,2.16-6.26-.4-9.7-8.05-9.7ZM29.61,13.31h-.53l2.4-6.89h.53c1.53,0,2.71.67,1.91,3.42-.8,2.76-2.99,3.46-4.3,3.46h0Z"/>
  </g>
</svg>