<?xml version="1.0" encoding="UTF-8"?>
<svg id="Layer_2" xmlns="http://www.w3.org/2000/svg" viewBox="0 0 7.72 177.36">
  <defs>
    <style>
      .cls-1 {
        fill: #ed224b;
      }
    </style>
  </defs>
  <g id="Layer_1-2" data-name="Layer_1">
    <g>
      <g>
        <g>
          <path class="cls-1" d="M1.67,174.27l1.92,1.16h1.22v.75h-1.22l-1.92,1.18v-.84l.45-.27c.26-.15.53-.3.78-.45-.26-.14-.53-.29-.79-.44l-.45-.26v-.82h0Z"/>
          <path class="cls-1" d="M3.24,174.61c-.99,0-1.64-.65-1.64-1.61s.65-1.61,1.64-1.61,1.64.65,1.64,1.61-.65,1.61-1.64,1.61ZM3.24,172.16c-.62,0-.99.34-.99.84s.37.83.99.83.99-.33.99-.83-.37-.84-.99-.84Z"/>
          <path class="cls-1" d="M3.61,171.18h-1.95v-.75h1.95c.41,0,.61-.24.61-.62s-.2-.62-.61-.62h-1.95v-.75h1.95c.83,0,1.27.55,1.27,1.37s-.43,1.36-1.27,1.36h0Z"/>
          <path class="cls-1" d="M4.81,165.47v.77c-.09.05-.2.07-.34.08h-.35c-.38.03-.46.19-.46.48v.61h1.16v.75H1.67v-1.49c0-.79.4-1.14.91-1.14.33,0,.61.16.75.51.12-.36.37-.43.71-.45l.44-.02c.13,0,.26-.04.34-.09h0ZM3.09,166.74c0-.29-.15-.45-.42-.45s-.41.17-.41.47v.64h.83v-.66h0Z"/>
          <path class="cls-1" d="M3.24,164.44c-1.01,0-1.64-.61-1.64-1.57,0-.75.41-1.36,1.2-1.49v.75c-.37.1-.55.38-.55.73,0,.51.37.79,1,.79s1-.28,1-.79c0-.37-.22-.68-.64-.75v-.75c.84.1,1.28.72,1.28,1.5,0,.94-.63,1.57-1.64,1.57Z"/>
          <path class="cls-1" d="M1.67,158.37h3.14v.75h-1.27v1.26h1.27v.75H1.67v-.75h1.2v-1.26h-1.2v-.75Z"/>
          <path class="cls-1" d="M3.24,158.16c-.99,0-1.64-.65-1.64-1.61s.65-1.61,1.64-1.61,1.64.65,1.64,1.61-.65,1.61-1.64,1.61ZM3.24,155.71c-.62,0-.99.34-.99.84s.37.83.99.83.99-.33.99-.83-.37-.84-.99-.84Z"/>
          <path class="cls-1" d="M1.67,154.73v-.75h3.14v.75H1.67Z"/>
          <path class="cls-1" d="M3.24,153.77c-1.01,0-1.64-.61-1.64-1.57,0-.75.41-1.36,1.2-1.49v.75c-.37.1-.55.38-.55.73,0,.51.37.79,1,.79s1-.28,1-.79c0-.37-.22-.68-.64-.75v-.75c.84.1,1.28.72,1.28,1.5,0,.94-.63,1.57-1.64,1.57Z"/>
          <path class="cls-1" d="M2.33,149.76h.57v-1.5h.63v1.5h.61v-1.65h.67v2.4H1.67v-2.4h.67v1.65h0Z"/>
          <path class="cls-1" d="M4.05,147.88v-.78h.76v.78h-.76Z"/>
          <path class="cls-1" d="M4.46,137.4l-2.78-.97v.8l.8.28c.12.04.28.09.48.14.19.05.4.1.62.16-.22-.03-.68-.03-.74-.03l-1.15.03v.79l3.13,1.09v-.79l-.8-.28c-.12-.04-.27-.09-.43-.14-.16-.05-.36-.1-.57-.16.2.01.42.02.66.02l1.05-.02,1.15,4.28c.19.71.16,1.29-.08,1.62-.62.84-1.87.2-2.24-.03.45.41.91.83,1.41,1.15.78.5,1.63.72,2.18.38.99-.61.53-2.08.13-3.01l-3.68-8.6.89,3.3h0ZM4.86,140.93c0-.71-.49-1.21-1.09-1.42-.6-.21-2.09-.73-2.09-.73v.83l2.02.7c.31.11.38.2.38.34s-.07.19-.38.08l-2.02-.7v.83s1.46.51,2.09.73c.63.22,1.09.04,1.09-.67ZM1.67,142.27v.8l3.13,1.09v-.83l-1.28-.45h1.28v-.91l-1.3.17c-.14-.36-.4-.61-.78-.74-.68-.23-1.05.04-1.05.87ZM3.11,142.68v.06l-.74-.26v-.06c0-.16.07-.29.37-.21.3.09.37.32.37.46h0Z"/>
        </g>
        <g>
          <path class="cls-1" d="M1.24,129.54l1.92,1.16h1.22v.75h-1.22l-1.92,1.18v-.84l.45-.27c.26-.15.53-.3.78-.45-.26-.14-.53-.29-.79-.44l-.45-.26v-.82h0Z"/>
          <path class="cls-1" d="M2.81,129.88c-.99,0-1.64-.65-1.64-1.61s.65-1.61,1.64-1.61,1.64.65,1.64,1.61-.65,1.61-1.64,1.61ZM2.81,127.43c-.62,0-.99.34-.99.84s.37.83.99.83.99-.33.99-.83-.37-.84-.99-.84Z"/>
          <path class="cls-1" d="M3.19,126.44h-1.95v-.75h1.95c.41,0,.61-.24.61-.62s-.2-.62-.61-.62h-1.95v-.75h1.95c.83,0,1.27.55,1.27,1.37s-.43,1.36-1.27,1.36h0Z"/>
          <path class="cls-1" d="M4.38,120.74v.77c-.09.05-.2.07-.34.08h-.35c-.38.03-.46.19-.46.48v.61h1.16v.75H1.24v-1.49c0-.79.4-1.14.91-1.14.33,0,.61.16.75.51.12-.36.37-.43.71-.45l.44-.02c.13,0,.26-.04.34-.09h0ZM2.67,122.01c0-.29-.15-.45-.42-.45s-.41.17-.41.47v.64h.83v-.66h0Z"/>
          <path class="cls-1" d="M2.81,119.71c-1.01,0-1.64-.61-1.64-1.57,0-.75.41-1.36,1.2-1.49v.75c-.37.1-.55.38-.55.73,0,.51.37.79,1,.79s1-.28,1-.79c0-.37-.22-.68-.64-.75v-.75c.84.1,1.28.72,1.28,1.5,0,.94-.63,1.57-1.64,1.57Z"/>
          <path class="cls-1" d="M1.24,113.64h3.14v.75h-1.27v1.26h1.27v.75H1.24v-.75h1.2v-1.26h-1.2v-.75Z"/>
          <path class="cls-1" d="M2.81,113.43c-.99,0-1.64-.65-1.64-1.61s.65-1.61,1.64-1.61,1.64.65,1.64,1.61-.65,1.61-1.64,1.61ZM2.81,110.98c-.62,0-.99.34-.99.84s.37.83.99.83.99-.33.99-.83-.37-.84-.99-.84Z"/>
          <path class="cls-1" d="M1.24,110v-.75h3.14v.75H1.24Z"/>
          <path class="cls-1" d="M2.81,109.04c-1.01,0-1.64-.61-1.64-1.57,0-.75.41-1.36,1.2-1.49v.75c-.37.1-.55.38-.55.73,0,.51.37.79,1,.79s1-.28,1-.79c0-.37-.22-.68-.64-.75v-.75c.84.1,1.28.72,1.28,1.5,0,.94-.63,1.57-1.64,1.57Z"/>
          <path class="cls-1" d="M1.91,105.02h.57v-1.5h.63v1.5h.61v-1.65h.67v2.4H1.24v-2.4h.67v1.65h0Z"/>
          <path class="cls-1" d="M3.62,103.15v-.78h.76v.78h-.76Z"/>
          <path class="cls-1" d="M4.03,92.67l-2.78-.97v.8l.8.28c.12.04.28.09.48.14.19.05.4.1.62.16-.22-.03-.68-.03-.74-.03l-1.15.03v.79l3.13,1.09v-.79l-.8-.28c-.12-.04-.27-.09-.43-.14-.16-.05-.36-.1-.57-.16.2.01.42.02.66.02l1.05-.02,1.15,4.28c.19.71.16,1.29-.08,1.62-.62.84-1.87.2-2.24-.03.45.41.91.83,1.41,1.15.78.5,1.63.72,2.18.38.99-.61.53-2.08.13-3.01l-3.68-8.6.89,3.3h0ZM4.43,96.2c0-.71-.49-1.21-1.09-1.42-.6-.21-2.09-.73-2.09-.73v.83l2.02.7c.31.11.38.2.38.34s-.07.19-.38.08l-2.02-.7v.83s1.46.51,2.09.73c.63.22,1.09.04,1.09-.67ZM1.25,97.54v.8l3.13,1.09v-.83l-1.28-.45h1.28v-.91l-1.3.17c-.14-.36-.4-.61-.78-.74-.68-.23-1.05.04-1.05.87ZM2.68,97.95v.06l-.74-.26v-.06c0-.16.07-.29.37-.21.3.09.37.32.37.46h0Z"/>
        </g>
      </g>
      <g>
        <g>
          <path class="cls-1" d="M.5,84.9l1.92,1.16h1.22v.75h-1.22l-1.92,1.18v-.84l.45-.27c.26-.15.53-.3.78-.45-.26-.14-.53-.29-.79-.44l-.45-.26v-.82h0Z"/>
          <path class="cls-1" d="M2.07,85.24c-.99,0-1.64-.65-1.64-1.61s.65-1.61,1.64-1.61,1.64.65,1.64,1.61-.65,1.61-1.64,1.61ZM2.07,82.79c-.62,0-.99.34-.99.84s.37.83.99.83.99-.33.99-.83-.37-.84-.99-.84Z"/>
          <path class="cls-1" d="M2.44,81.81H.5v-.75h1.95c.41,0,.61-.24.61-.62s-.2-.62-.61-.62H.5v-.75h1.95c.83,0,1.27.55,1.27,1.37s-.43,1.36-1.27,1.36h0Z"/>
          <path class="cls-1" d="M3.64,76.1v.77c-.09.05-.2.07-.34.08h-.35c-.38.03-.46.19-.46.48v.61h1.16v.75H.5v-1.49c0-.79.4-1.14.91-1.14.33,0,.61.16.75.51.12-.36.37-.43.71-.45l.44-.02c.13,0,.26-.04.34-.09h0ZM1.92,77.37c0-.29-.15-.45-.42-.45s-.41.17-.41.47v.64h.83v-.66h0Z"/>
          <path class="cls-1" d="M2.07,75.07c-1.01,0-1.64-.61-1.64-1.57,0-.75.41-1.36,1.2-1.49v.75c-.37.1-.55.38-.55.73,0,.51.37.79,1,.79s1-.28,1-.79c0-.37-.22-.68-.64-.75v-.75c.84.1,1.28.72,1.28,1.5,0,.94-.63,1.57-1.64,1.57Z"/>
          <path class="cls-1" d="M.5,69h3.14v.75h-1.27v1.26h1.27v.75H.5v-.75h1.2v-1.26H.5v-.75Z"/>
          <path class="cls-1" d="M2.07,68.79c-.99,0-1.64-.65-1.64-1.61s.65-1.61,1.64-1.61,1.64.65,1.64,1.61-.65,1.61-1.64,1.61ZM2.07,66.34c-.62,0-.99.34-.99.84s.37.83.99.83.99-.33.99-.83-.37-.84-.99-.84Z"/>
          <path class="cls-1" d="M.5,65.36v-.75h3.14v.75H.5Z"/>
          <path class="cls-1" d="M2.07,64.4c-1.01,0-1.64-.61-1.64-1.57,0-.75.41-1.36,1.2-1.49v.75c-.37.1-.55.38-.55.73,0,.51.37.79,1,.79s1-.28,1-.79c0-.37-.22-.68-.64-.75v-.75c.84.1,1.28.72,1.28,1.5,0,.94-.63,1.57-1.64,1.57Z"/>
          <path class="cls-1" d="M1.16,60.39h.57v-1.5h.63v1.5h.61v-1.65h.67v2.4H.5v-2.4h.67v1.65h0Z"/>
          <path class="cls-1" d="M2.88,58.52v-.78h.76v.78h-.76Z"/>
          <path class="cls-1" d="M3.29,48.03l-2.78-.97v.8l.8.28c.12.04.28.09.48.14.19.05.4.1.62.16-.22-.03-.68-.03-.74-.03l-1.15.03v.79l3.13,1.09v-.79l-.8-.28c-.12-.04-.27-.09-.43-.14-.16-.05-.36-.1-.57-.16.2.01.42.02.66.02l1.05-.02,1.15,4.28c.19.71.16,1.29-.08,1.62-.62.84-1.87.2-2.24-.03.45.41.91.83,1.41,1.15.78.5,1.63.72,2.18.38.99-.61.53-2.08.13-3.01l-3.68-8.6.89,3.3h0ZM3.69,51.57c0-.71-.49-1.21-1.09-1.42-.6-.21-2.09-.73-2.09-.73v.83l2.02.7c.31.11.38.2.38.34s-.07.19-.38.08l-2.02-.7v.83s1.46.51,2.09.73c.63.22,1.09.04,1.09-.67ZM.5,52.9v.8l3.13,1.09v-.83l-1.28-.45h1.28v-.91l-1.3.17c-.14-.36-.4-.61-.78-.74-.68-.23-1.05.04-1.05.87ZM1.94,53.32v.06l-.74-.26v-.06c0-.16.07-.29.37-.21.3.09.37.32.37.46h0Z"/>
        </g>
        <g>
          <path class="cls-1" d="M.07,40.17l1.92,1.16h1.22v.75h-1.22l-1.92,1.18v-.84l.45-.27c.26-.15.53-.3.78-.45-.26-.14-.53-.29-.79-.44l-.45-.26v-.82h0Z"/>
          <path class="cls-1" d="M1.64,40.51c-.99,0-1.64-.65-1.64-1.61s.65-1.61,1.64-1.61,1.64.65,1.64,1.61-.65,1.61-1.64,1.61ZM1.64,38.06c-.62,0-.99.34-.99.84s.37.83.99.83.99-.33.99-.83-.37-.84-.99-.84Z"/>
          <path class="cls-1" d="M2.02,37.08H.07v-.75h1.95c.41,0,.61-.24.61-.62s-.2-.62-.61-.62H.07v-.75h1.95c.83,0,1.27.55,1.27,1.37s-.43,1.36-1.27,1.36h0Z"/>
          <path class="cls-1" d="M3.21,31.37v.77c-.09.05-.2.07-.34.08h-.35c-.38.03-.46.19-.46.48v.61h1.16v.75H.07v-1.49c0-.79.4-1.14.91-1.14.33,0,.61.16.75.51.12-.36.37-.43.71-.45l.44-.02c.13,0,.26-.04.34-.09h0ZM1.5,32.64c0-.29-.15-.45-.42-.45s-.41.17-.41.47v.64h.83v-.66h0Z"/>
          <path class="cls-1" d="M1.64,30.34c-1.01,0-1.64-.61-1.64-1.57,0-.75.41-1.36,1.2-1.49v.75c-.37.1-.55.38-.55.73,0,.51.37.79,1,.79s1-.28,1-.79c0-.37-.22-.68-.64-.75v-.75c.84.1,1.28.72,1.28,1.5,0,.94-.63,1.57-1.64,1.57Z"/>
          <path class="cls-1" d="M.07,24.27h3.14v.75h-1.27v1.26h1.27v.75H.07v-.75h1.2v-1.26H.07v-.75Z"/>
          <path class="cls-1" d="M1.64,24.06c-.99,0-1.64-.65-1.64-1.61s.65-1.61,1.64-1.61,1.64.65,1.64,1.61-.65,1.61-1.64,1.61ZM1.64,21.61c-.62,0-.99.34-.99.84s.37.83.99.83.99-.33.99-.83-.37-.84-.99-.84Z"/>
          <path class="cls-1" d="M.07,20.63v-.75h3.14v.75H.07Z"/>
          <path class="cls-1" d="M1.64,19.67c-1.01,0-1.64-.61-1.64-1.57,0-.75.41-1.36,1.2-1.49v.75c-.37.1-.55.38-.55.73,0,.51.37.79,1,.79s1-.28,1-.79c0-.37-.22-.68-.64-.75v-.75c.84.1,1.28.72,1.28,1.5,0,.94-.63,1.57-1.64,1.57Z"/>
          <path class="cls-1" d="M.74,15.66h.57v-1.5h.63v1.5h.61v-1.65h.67v2.4H.07v-2.4h.67v1.65h0Z"/>
          <path class="cls-1" d="M2.45,13.79v-.78h.76v.78h-.76Z"/>
          <path class="cls-1" d="M2.86,3.3L.08,2.33v.8l.8.28c.12.04.28.09.48.14.19.05.4.1.62.16-.22-.03-.68-.03-.74-.03l-1.15.03v.79l3.13,1.09v-.79l-.8-.28c-.12-.04-.27-.09-.43-.14-.16-.05-.36-.1-.57-.16.2.01.42.02.66.02l1.05-.02,1.15,4.28c.19.71.16,1.29-.08,1.62-.62.84-1.87.2-2.24-.03.45.41.91.83,1.41,1.15.78.5,1.63.72,2.18.38.99-.61.53-2.08.13-3.01L1.98,0l.89,3.3h0ZM3.26,6.83c0-.71-.49-1.21-1.09-1.42-.6-.21-2.09-.73-2.09-.73v.83l2.02.7c.31.11.38.2.38.34s-.07.19-.38.08L.08,5.94v.83s1.46.51,2.09.73c.63.22,1.09.04,1.09-.67ZM.08,8.17v.8l3.13,1.09v-.83l-1.28-.45h1.28v-.91l-1.3.17c-.14-.36-.4-.61-.78-.74-.68-.23-1.05.04-1.05.87ZM1.51,8.59v.06l-.74-.26v-.06c0-.16.07-.29.37-.21.3.09.37.32.37.46h0Z"/>
        </g>
      </g>
    </g>
  </g>
</svg>